<svg id="Camada_1" data-name="Camada 1" xmlns="http://www.w3.org/2000/svg" viewBox="0 0 90.38 75"><defs><style>.cls-1{fill:#fff;}</style></defs><title>logo_white</title><g id="Logo_3" data-name="Logo 3"><g id="grupo"><path class="cls-1" d="M47.75,115.54a0.74,0.74,0,0,0-.58-0.81l-0.23-.05,0.13-1.35,0.18,0a0.61,0.61,0,0,0,.74-0.51,0.74,0.74,0,0,0-.58-0.81l-0.2,0,0.13-1.35,0.15,0a0.61,0.61,0,0,0,.74-0.51,0.75,0.75,0,0,0-.59-0.81l-0.17,0L47.6,108l0.12,0a0.62,0.62,0,0,0,.75-0.51,0.74,0.74,0,0,0-.59-0.81l-0.14,0,0.13-1.35,0.09,0a0.6,0.6,0,0,0,.74-0.51,0.73,0.73,0,0,0-.58-0.81L48,104l0.27-2.7H48.4a2.55,2.55,0,0,0,.47-1.6,2.93,2.93,0,0,0-.11-1.7,1,1,0,0,0,.43-0.41,16,16,0,0,0,2.71-8.14,19.83,19.83,0,0,0-.54-6c-0.67-1.74-1.54-2.3-3.47-2.31s-5.64,0-7.55,0-2.81.57-3.47,2.31c-0.52,1.34-.54,3.55-0.54,6A16,16,0,0,0,39,97.59a1.08,1.08,0,0,0,.49.4h0a2.42,2.42,0,0,0-.14,1.71,2.58,2.58,0,0,0,.46,1.6H40l0.11,1.08-0.08,0a0.48,0.48,0,0,0-.58.58,1,1,0,0,0,.74.81h0l0.14,1.4-0.11,0a0.47,0.47,0,0,0-.58.57,1,1,0,0,0,.74.81l0.09,0,0.14,1.4-0.15,0a0.47,0.47,0,0,0-.58.57,1,1,0,0,0,.74.82l0.13,0,0.14,1.39-0.19,0a0.47,0.47,0,0,0-.58.58,1,1,0,0,0,.74.81l0.16,0,0.14,1.41-0.22,0a0.46,0.46,0,0,0-.58.57,1,1,0,0,0,.74.81l0.2,0,0.19,1.87H10.81l33.3-75,33.3,75H46.73l0.08-.74,0.2,0A0.61,0.61,0,0,0,47.75,115.54Z" transform="translate(-10.81 -41.75)"/><polygon class="cls-1" points="90.39 16.09 52.45 16.09 45.3 0 90.39 0 90.39 16.09"/><polygon class="cls-1" points="89.39 46.28 65.85 46.28 58.7 30.19 89.39 30.19 89.39 46.28"/></g></g></svg>